<svg width="21" height="23" viewBox="0 0 21 23" fill="none" xmlns="http://www.w3.org/2000/svg">
<path d="M11.2303 22.331L9.72265 20.8011L11.2303 19.2711L12.7379 20.8011L11.2303 22.331ZM7.76273 20.8011L6.70738 19.7301L9.6724 16.7213L10.7277 17.7922L7.76273 20.8011ZM14.2456 19.2711L12.7379 17.7412L14.2456 16.2113L15.7532 17.7412L14.2456 19.2711ZM5.19975 19.2711L3.69212 17.7412L5.19975 16.2113L6.70738 17.7412L5.19975 19.2711ZM6.20484 15.1913C4.68045 15.1913 3.37786 14.6429 2.29705 13.5461C1.21625 12.4494 0.67618 11.1278 0.67685 9.58159C0.67685 8.17065 1.13752 6.93821 2.05885 5.88426C2.98018 4.83031 4.11928 4.20984 5.47615 4.02285C6.0122 3.05389 6.74524 2.293 7.67528 1.74019C8.60533 1.18738 9.62281 0.911309 10.7277 0.911989C12.2354 0.911989 13.5463 1.40089 14.6607 2.37868C15.775 3.35648 16.449 4.576 16.6829 6.03725C17.8387 6.13925 18.8103 6.62373 19.5976 7.49069C20.385 8.35765 20.7786 9.3946 20.7786 10.6015C20.7786 11.8765 20.3391 12.9604 19.46 13.8532C18.5808 14.746 17.5128 15.192 16.2557 15.1913H6.20484Z" fill="white"/>
</svg>
